<svg width="46" height="46" viewBox="0 0 46 46" fill="none" xmlns="http://www.w3.org/2000/svg">
<rect width="46" height="46" rx="23" transform="matrix(-1 0 0 1 46 0)" fill="#E8CC03"/>
<path fill-rule="evenodd" clip-rule="evenodd" d="M15.3334 17.2502C15.3334 19.2835 16.1412 21.2335 17.5789 22.6713C19.0167 24.1091 20.9668 24.9168 23.0001 24.9168C25.0334 24.9168 26.9835 24.1091 28.4212 22.6713C29.859 21.2335 30.6667 19.2835 30.6667 17.2502C30.6667 15.2168 29.859 13.2668 28.4212 11.829C26.9835 10.3912 25.0334 9.5835 23.0001 9.5835C20.9668 9.5835 19.0167 10.3912 17.5789 11.829C16.1412 13.2668 15.3334 15.2168 15.3334 17.2502Z" fill="#193547"/>
<path d="M22.8754 30.167C25.1144 30.1655 27.3206 30.7048 29.3064 31.739C31.2923 32.7733 32.999 34.2721 34.2812 36.1077L34.5473 36.4885L34.187 36.7818C31.0268 39.3544 27.0749 40.7563 23 40.7503C18.853 40.756 14.836 39.3038 11.6513 36.6476L11.2945 36.3501L11.565 35.9725C12.8526 34.1749 14.5506 32.7104 16.5177 31.7007C18.4848 30.6911 20.6644 30.1653 22.8754 30.167ZM22.8754 30.167C22.8756 30.167 22.8757 30.167 22.8758 30.167L22.8754 30.667L22.8751 30.167C22.8752 30.167 22.8753 30.167 22.8754 30.167Z" fill="#193547" stroke="#193547"/>
</svg>
