<svg width="16" height="17" viewBox="0 0 16 17" fill="none" xmlns="http://www.w3.org/2000/svg">
<g clip-path="url(#clip0_2831_11067)">
<path d="M14.6702 5.56814V8.23481M6.83691 3.90147L4.53691 3.90147C3.41681 3.90147 2.85676 3.90147 2.42893 4.11946C2.05261 4.3112 1.74665 4.61717 1.5549 4.99349C1.33691 5.42131 1.33691 5.98137 1.33691 7.10147L1.33691 7.90147C1.33691 8.52273 1.33692 8.83336 1.43841 9.07838C1.57373 9.40509 1.8333 9.66465 2.16 9.79998C2.40503 9.90147 2.71566 9.90147 3.33692 9.90147V12.7348C3.33692 12.8896 3.33692 12.967 3.34334 13.0322C3.40568 13.6652 3.90652 14.166 4.53956 14.2284C4.60475 14.2348 4.68214 14.2348 4.83692 14.2348C4.9917 14.2348 5.06908 14.2348 5.13427 14.2284C5.76731 14.166 6.26815 13.6652 6.3305 13.0322C6.33692 12.967 6.33692 12.8896 6.33692 12.7348V9.90147H6.83692C8.01453 9.90147 9.45508 10.5327 10.5664 11.1386C11.2148 11.492 11.539 11.6687 11.7513 11.6427C11.9482 11.6186 12.0971 11.5302 12.2125 11.3689C12.3369 11.1949 12.3369 10.8468 12.3369 10.1506V3.65233C12.3369 2.95613 12.3369 2.60804 12.2125 2.43406C12.0971 2.27274 11.9482 2.18434 11.7513 2.16022C11.539 2.13422 11.2148 2.31094 10.5664 2.66437C9.45508 3.27021 8.01453 3.90147 6.83691 3.90147Z" stroke="#919191" stroke-width="1.5" stroke-linecap="round" stroke-linejoin="round"/>
</g>
<defs>
<clipPath id="clip0_2831_11067">
<rect width="16" height="16" fill="white" transform="translate(0.00390625 0.234863)"/>
</clipPath>
</defs>
</svg>
