<svg width="16" height="17" viewBox="0 0 16 17" fill="none" xmlns="http://www.w3.org/2000/svg">
<g id="inactive">
<g id="ticket">
<path id="Vector" d="M13.0036 8.56828C13.0036 7.64828 13.7502 6.90161 14.6702 6.90161V6.23494C14.6702 3.56828 14.0036 2.90161 11.3369 2.90161L4.67025 2.90161C2.00358 2.90161 1.33691 3.56828 1.33691 6.23494V6.56828C2.25691 6.56828 3.00358 7.31494 3.00358 8.23494C3.00358 9.15494 2.25691 9.90161 1.33691 9.90161V10.2349C1.33691 12.9016 2.00358 13.5683 4.67025 13.5683L11.3369 13.5683C14.0036 13.5683 14.6702 12.9016 14.6702 10.2349C13.7502 10.2349 13.0036 9.48828 13.0036 8.56828Z" stroke="#919191" stroke-width="1.5" stroke-linecap="round" stroke-linejoin="round"/>
<path id="Vector_2" d="M6.6709 2.90161L6.6709 13.5683" stroke="#919191" stroke-width="1.5" stroke-linecap="round" stroke-linejoin="round" stroke-dasharray="5 5"/>
</g>
</g>
</svg>
