<svg width="16" height="17" viewBox="0 0 16 17" fill="none" xmlns="http://www.w3.org/2000/svg">
<path d="M5.33691 1.56812V3.56812" stroke="#919191" stroke-width="1.5" stroke-miterlimit="10" stroke-linecap="round" stroke-linejoin="round"/>
<path d="M10.6709 1.56812V3.56812" stroke="#919191" stroke-width="1.5" stroke-miterlimit="10" stroke-linecap="round" stroke-linejoin="round"/>
<path d="M2.33691 6.29492L13.6702 6.29492" stroke="#919191" stroke-width="1.5" stroke-miterlimit="10" stroke-linecap="round" stroke-linejoin="round"/>
<path d="M14.6702 12.9015C14.6702 13.4015 14.5302 13.8749 14.2836 14.2749C13.8236 15.0482 12.9769 15.5682 12.0036 15.5682C11.3302 15.5682 10.7169 15.3215 10.2502 14.9015C10.0436 14.7282 9.86358 14.5149 9.72358 14.2749C9.47692 13.8749 9.33691 13.4015 9.33691 12.9015C9.33691 11.4282 10.5302 10.2349 12.0036 10.2349C12.8036 10.2349 13.5169 10.5882 14.0036 11.1415C14.4169 11.6149 14.6702 12.2282 14.6702 12.9015Z" stroke="#919191" stroke-width="1.5" stroke-miterlimit="10" stroke-linecap="round" stroke-linejoin="round"/>
<path d="M10.9639 12.9016L11.6239 13.5616L13.0439 12.2483" stroke="#919191" stroke-width="1.5" stroke-linecap="round" stroke-linejoin="round"/>
<path d="M14.0039 5.90145V11.1414C13.5172 10.5881 12.8039 10.2348 12.0039 10.2348C10.5306 10.2348 9.33724 11.4281 9.33724 12.9014C9.33724 13.4014 9.47724 13.8748 9.72391 14.2748C9.86391 14.5148 10.0439 14.7281 10.2506 14.9014L5.33724 14.9014C3.00391 14.9014 2.00391 13.5681 2.00391 11.5681V5.90145C2.00391 3.90145 3.00391 2.56812 5.33724 2.56812L10.6706 2.56812C13.0039 2.56812 14.0039 3.90145 14.0039 5.90145Z" stroke="#919191" stroke-width="1.5" stroke-miterlimit="10" stroke-linecap="round" stroke-linejoin="round"/>
<path d="M8.00057 9.36825H8.00656" stroke="#919191" stroke-width="2" stroke-linecap="round" stroke-linejoin="round"/>
<path d="M5.53377 9.36825H5.53976" stroke="#919191" stroke-width="2" stroke-linecap="round" stroke-linejoin="round"/>
<path d="M5.53377 11.3682H5.53976" stroke="#919191" stroke-width="2" stroke-linecap="round" stroke-linejoin="round"/>
</svg>
