<svg width="18" height="18" viewBox="0 0 18 18" fill="none" xmlns="http://www.w3.org/2000/svg">
<path d="M6 5.25H4.125C3.82663 5.25 3.54048 5.36853 3.3295 5.5795C3.11853 5.79048 3 6.07663 3 6.375C3 6.67337 3.11853 6.95952 3.3295 7.1705C3.54048 7.38147 3.82663 7.5 4.125 7.5H4.875C5.17337 7.5 5.45952 7.61853 5.6705 7.8295C5.88147 8.04048 6 8.32663 6 8.625C6 8.92337 5.88147 9.20952 5.6705 9.4205C5.45952 9.63147 5.17337 9.75 4.875 9.75H3" stroke="#193547" stroke-width="1.5" stroke-linecap="round" stroke-linejoin="round"/>
<path d="M7.5 12.75H12M9 9.75H12M4.5 5.25V4.5M4.5 10.5V9.75" stroke="#193547" stroke-width="1.5" stroke-linecap="round" stroke-linejoin="round"/>
<path d="M6.75 2.25H14.25C14.4489 2.25 14.6397 2.32902 14.7803 2.46967C14.921 2.61032 15 2.80109 15 3V15C15 15.1989 14.921 15.3897 14.7803 15.5303C14.6397 15.671 14.4489 15.75 14.25 15.75H5.25C5.05109 15.75 4.86032 15.671 4.71967 15.5303C4.57902 15.3897 4.5 15.1989 4.5 15V13.5" stroke="#193547" stroke-width="1.5" stroke-linecap="round" stroke-linejoin="round"/>
</svg>
