<svg width="28" height="19" viewBox="0 0 28 19" fill="none" xmlns="http://www.w3.org/2000/svg">
<path d="M4.27237 7.98266C5.78482 7.98266 7.01449 6.79061 7.01449 5.32442C7.01449 3.85823 5.78482 2.66618 4.27237 2.66618C2.75991 2.66618 1.53024 3.85823 1.53024 5.32442C1.53024 6.79061 2.75991 7.98266 4.27237 7.98266ZM23.4672 7.98266C24.9797 7.98266 26.2094 6.79061 26.2094 5.32442C26.2094 3.85823 24.9797 2.66618 23.4672 2.66618C21.9548 2.66618 20.7251 3.85823 20.7251 5.32442C20.7251 6.79061 21.9548 7.98266 23.4672 7.98266ZM24.8383 9.31179H22.0962C21.3421 9.31179 20.6608 9.60669 20.1638 10.0843C21.8905 11.0023 23.1159 12.6595 23.3816 14.6283H26.2094C26.9677 14.6283 27.5804 14.0343 27.5804 13.2992V11.97C27.5804 10.5038 26.3508 9.31179 24.8383 9.31179ZM13.8698 9.31179C16.522 9.31179 18.6685 7.23088 18.6685 4.65986C18.6685 2.08884 16.522 0.00793457 13.8698 0.00793457C11.2177 0.00793457 9.07109 2.08884 9.07109 4.65986C9.07109 7.23088 11.2177 9.31179 13.8698 9.31179ZM17.1604 10.6409H16.8047C15.9135 11.0563 14.9238 11.3055 13.8698 11.3055C12.8158 11.3055 11.8304 11.0563 10.9349 10.6409H10.5793C7.85427 10.6409 5.64343 12.7841 5.64343 15.4257V16.622C5.64343 17.7226 6.56461 18.6156 7.70002 18.6156H20.0396C21.175 18.6156 22.0962 17.7226 22.0962 16.622V15.4257C22.0962 12.7841 19.8853 10.6409 17.1604 10.6409ZM7.57577 10.0843C7.07876 9.60669 6.39751 9.31179 5.64343 9.31179H2.9013C1.38885 9.31179 0.15918 10.5038 0.15918 11.97V13.2992C0.15918 14.0343 0.771873 14.6283 1.53024 14.6283H4.35377C4.6237 12.6595 5.84909 11.0023 7.57577 10.0843Z" fill="#7A7A7A"/>
</svg>
