<svg width="32" height="33" viewBox="0 0 32 33" fill="none" xmlns="http://www.w3.org/2000/svg">
<rect y="0.234863" width="32" height="32" rx="12" fill="#3AB049"/>
<path d="M17.5701 9.5686L14.4368 9.5686C13.7434 9.5686 13.1768 10.1286 13.1768 10.8219V11.4486C13.1768 12.1419 13.7368 12.7019 14.4301 12.7019L17.5701 12.7019C18.2634 12.7019 18.8234 12.1419 18.8234 11.4486V10.8219C18.8301 10.1286 18.2634 9.5686 17.5701 9.5686Z" fill="white"/>
<path d="M19.4973 11.4487C19.4973 12.5087 18.6306 13.3753 17.5706 13.3753L14.4373 13.3753C13.3773 13.3753 12.5106 12.5087 12.5106 11.4487C12.5106 11.0753 12.1106 10.842 11.7773 11.0153C10.8373 11.5153 10.1973 12.5087 10.1973 13.6487V19.922C10.1973 21.562 11.5373 22.902 13.1773 22.902L18.8306 22.902C20.4706 22.902 21.8106 21.562 21.8106 19.922V13.6487C21.8106 12.5087 21.1706 11.5153 20.2306 11.0153C19.8973 10.842 19.4973 11.0753 19.4973 11.4487ZM16.2573 19.5353H13.3373C13.0639 19.5353 12.8373 19.3087 12.8373 19.0353C12.8373 18.762 13.0639 18.5353 13.3373 18.5353L16.2573 18.5353C16.5306 18.5353 16.7573 18.762 16.7573 19.0353C16.7573 19.3087 16.5306 19.5353 16.2573 19.5353ZM18.0039 16.8687L13.3373 16.8687C13.0639 16.8687 12.8373 16.642 12.8373 16.3687C12.8373 16.0953 13.0639 15.8687 13.3373 15.8687L18.0039 15.8687C18.2773 15.8687 18.5039 16.0953 18.5039 16.3687C18.5039 16.642 18.2773 16.8687 18.0039 16.8687Z" fill="white"/>
</svg>
