<svg width="16" height="17" viewBox="0 0 16 17" fill="none" xmlns="http://www.w3.org/2000/svg">
<path d="M5.3368 14.9015L10.6701 14.9015C13.3501 14.9015 13.8301 13.8282 13.9701 12.5215L14.4701 7.1882C14.6501 5.56153 14.1835 4.23486 11.3368 4.23486L4.67013 4.23486C1.82347 4.23486 1.3568 5.56153 1.5368 7.1882L2.0368 12.5215C2.1768 13.8282 2.6568 14.9015 5.3368 14.9015Z" stroke="#919191" stroke-width="1.5" stroke-miterlimit="10" stroke-linecap="round" stroke-linejoin="round"/>
<path d="M5.33691 4.23478V3.70145C5.33691 2.52145 5.33691 1.56812 7.47025 1.56812L8.53691 1.56812C10.6702 1.56812 10.6702 2.52145 10.6702 3.70145V4.23478" stroke="#919191" stroke-width="1.5" stroke-miterlimit="10" stroke-linecap="round" stroke-linejoin="round"/>
<path d="M9.33756 8.90153V9.5682C9.33756 9.57486 9.33756 9.57486 9.33756 9.58153C9.33756 10.3082 9.3309 10.9015 8.00423 10.9015C6.68423 10.9015 6.6709 10.3149 6.6709 9.5882V8.90153C6.6709 8.23486 6.6709 8.23486 7.33757 8.23486H8.6709C9.33756 8.23486 9.33756 8.23486 9.33756 8.90153Z" stroke="#919191" stroke-width="1.5" stroke-miterlimit="10" stroke-linecap="round" stroke-linejoin="round"/>
<path d="M14.4369 7.56812C12.8969 8.68812 11.1369 9.35478 9.33691 9.58145" stroke="#919191" stroke-width="1.5" stroke-miterlimit="10" stroke-linecap="round" stroke-linejoin="round"/>
<path d="M1.75098 7.74829C3.25098 8.77496 4.94431 9.39496 6.67098 9.58829" stroke="#919191" stroke-width="1.5" stroke-miterlimit="10" stroke-linecap="round" stroke-linejoin="round"/>
</svg>
