<svg width="16" height="17" viewBox="0 0 16 17" fill="none" xmlns="http://www.w3.org/2000/svg">
<path d="M6.3335 8.49984C7.80416 8.49984 9.00016 7.30384 9.00016 5.83317C9.00016 4.3625 7.80416 3.1665 6.3335 3.1665C4.86283 3.1665 3.66683 4.3625 3.66683 5.83317C3.66683 7.30384 4.86283 8.49984 6.3335 8.49984ZM7.3335 9.1665H5.3335C3.1275 9.1665 1.3335 10.9605 1.3335 13.1665V13.8332H11.3335V13.1665C11.3335 10.9605 9.5395 9.1665 7.3335 9.1665Z" fill="black"/>
<path d="M11.0692 7.86515C11.4753 7.17321 11.6506 6.37002 11.5699 5.57182C11.4506 4.38248 10.7866 3.33115 9.70122 2.61182L8.96455 3.72248C9.71055 4.21715 10.1646 4.92182 10.2432 5.70515C10.2795 6.06922 10.2342 6.43679 10.1105 6.78114C9.98692 7.12549 9.7881 7.43795 9.52855 7.69582L8.73389 8.49048L9.81255 8.80715C12.6339 9.63382 12.6666 12.4711 12.6666 12.4998H13.9999C13.9999 11.3071 13.3626 8.97648 11.0692 7.86515Z" fill="black"/>
</svg>
