<svg width="16" height="17" viewBox="0 0 16 17" fill="none" xmlns="http://www.w3.org/2000/svg">
<g clip-path="url(#clip0_2831_11107)">
<path d="M2.45679 7.79042H1.70679V7.79042L2.45679 7.79042ZM2.45679 8.90153L1.92855 9.43394C2.22095 9.72406 2.69262 9.72406 2.98503 9.43394L2.45679 8.90153ZM4.10491 8.32283C4.39895 8.03109 4.40081 7.55622 4.10907 7.26218C3.81733 6.96814 3.34246 6.96627 3.04842 7.25801L4.10491 8.32283ZM1.86516 7.25801C1.57112 6.96627 1.09625 6.96814 0.804505 7.26218C0.512764 7.55622 0.51463 8.03109 0.808671 8.32283L1.86516 7.25801ZM12.201 5.29432C12.4179 5.64718 12.8798 5.75738 13.2327 5.54045C13.5856 5.32352 13.6958 4.8616 13.4788 4.50874L12.201 5.29432ZM8.05616 1.48486C4.55506 1.48486 1.70679 4.30241 1.70679 7.79042L3.20679 7.79042C3.20679 5.14193 5.37236 2.98486 8.05616 2.98486V1.48486ZM1.70679 7.79042L1.70679 8.90153L3.20679 8.90153L3.20679 7.79042L1.70679 7.79042ZM2.98503 9.43394L4.10491 8.32283L3.04842 7.25801L1.92855 8.36912L2.98503 9.43394ZM2.98503 8.36912L1.86516 7.25801L0.808671 8.32283L1.92855 9.43394L2.98503 8.36912ZM13.4788 4.50874C12.364 2.69535 10.3516 1.48486 8.05616 1.48486V2.98486C9.8127 2.98486 11.3496 3.90952 12.201 5.29432L13.4788 4.50874Z" fill="#919191"/>
<path d="M13.5468 7.56812L14.0741 7.0347C13.7819 6.74592 13.3118 6.74592 13.0196 7.0347L13.5468 7.56812ZM11.8954 8.14581C11.6009 8.43699 11.5981 8.91185 11.8893 9.20645C12.1804 9.50105 12.6553 9.50382 12.9499 9.21264L11.8954 8.14581ZM14.1438 9.21264C14.4384 9.50382 14.9132 9.50105 15.2044 9.20645C15.4956 8.91185 15.4928 8.43699 15.1982 8.14581L14.1438 9.21264ZM3.76227 11.1742C3.54474 10.8217 3.08264 10.7123 2.73015 10.9299C2.37765 11.1474 2.26824 11.6095 2.48578 11.962L3.76227 11.1742ZM7.92605 14.9848C11.4363 14.9848 14.2968 12.1699 14.2968 8.67923H12.7968C12.7968 11.325 10.6244 13.4848 7.92605 13.4848V14.9848ZM14.2968 8.67923V7.56812L12.7968 7.56812V8.67923H14.2968ZM13.0196 7.0347L11.8954 8.14581L12.9499 9.21264L14.0741 8.10153L13.0196 7.0347ZM13.0196 8.10153L14.1438 9.21264L15.1982 8.14581L14.0741 7.0347L13.0196 8.10153ZM2.48578 11.962C3.60497 13.7756 5.62422 14.9848 7.92605 14.9848V13.4848C6.16042 13.4848 4.61676 12.5589 3.76227 11.1742L2.48578 11.962Z" fill="#919191"/>
</g>
<defs>
<clipPath id="clip0_2831_11107">
<rect width="16" height="16" fill="white" transform="translate(0.00390625 0.234863)"/>
</clipPath>
</defs>
</svg>
