<svg width="16" height="17" viewBox="0 0 16 17" fill="none" xmlns="http://www.w3.org/2000/svg">
<g id="icons/reports">
<g id="clipboard-text">
<path id="Vector" d="M9.57009 1.5686L6.43676 1.5686C5.74342 1.5686 5.17676 2.1286 5.17676 2.82194V3.4486C5.17676 4.14194 5.73676 4.70194 6.43009 4.70194L9.57009 4.70194C10.2634 4.70194 10.8234 4.14194 10.8234 3.4486V2.82194C10.8301 2.1286 10.2634 1.5686 9.57009 1.5686Z" fill="white"/>
<path id="Vector_2" d="M11.4973 3.44867C11.4973 4.50867 10.6306 5.37534 9.5706 5.37534L6.43726 5.37534C5.37727 5.37534 4.5106 4.50867 4.5106 3.44867C4.5106 3.07534 4.1106 2.842 3.77727 3.01534C2.83727 3.51534 2.19727 4.50867 2.19727 5.64867V11.922C2.19727 13.562 3.53727 14.902 5.17727 14.902L10.8306 14.902C12.4706 14.902 13.8106 13.562 13.8106 11.922V5.64867C13.8106 4.50867 13.1706 3.51534 12.2306 3.01534C11.8973 2.842 11.4973 3.07534 11.4973 3.44867ZM8.25727 11.5353H5.33727C5.06393 11.5353 4.83727 11.3087 4.83727 11.0353C4.83727 10.762 5.06393 10.5353 5.33727 10.5353L8.25727 10.5353C8.5306 10.5353 8.75727 10.762 8.75727 11.0353C8.75727 11.3087 8.5306 11.5353 8.25727 11.5353ZM10.0039 8.86867L5.33727 8.86867C5.06393 8.86867 4.83727 8.642 4.83727 8.36867C4.83727 8.09534 5.06393 7.86867 5.33727 7.86867L10.0039 7.86867C10.2773 7.86867 10.5039 8.09534 10.5039 8.36867C10.5039 8.642 10.2773 8.86867 10.0039 8.86867Z" fill="white"/>
</g>
</g>
</svg>
