<svg width="16" height="17" viewBox="0 0 16 17" fill="none" xmlns="http://www.w3.org/2000/svg">
<path d="M5.33691 1.56812V3.56812" stroke="#919191" stroke-width="1.5" stroke-miterlimit="10" stroke-linecap="round" stroke-linejoin="round"/>
<path d="M10.6709 1.56812V3.56812" stroke="#919191" stroke-width="1.5" stroke-miterlimit="10" stroke-linecap="round" stroke-linejoin="round"/>
<path d="M2.33691 6.29492L13.6702 6.29492" stroke="#919191" stroke-width="1.5" stroke-miterlimit="10" stroke-linecap="round" stroke-linejoin="round"/>
<path d="M14.0039 5.90145V11.5681C14.0039 13.5681 13.0039 14.9014 10.6706 14.9014L5.33724 14.9014C3.00391 14.9014 2.00391 13.5681 2.00391 11.5681V5.90145C2.00391 3.90145 3.00391 2.56812 5.33724 2.56812L10.6706 2.56812C13.0039 2.56812 14.0039 3.90145 14.0039 5.90145Z" stroke="#919191" stroke-width="1.5" stroke-miterlimit="10" stroke-linecap="round" stroke-linejoin="round"/>
<path d="M10.4674 9.36825H10.4734" stroke="#919191" stroke-width="1.5" stroke-linecap="round" stroke-linejoin="round"/>
<path d="M10.4674 11.3682H10.4734" stroke="#919191" stroke-width="1.5" stroke-linecap="round" stroke-linejoin="round"/>
<path d="M8.00057 9.36825H8.00656" stroke="#919191" stroke-width="1.5" stroke-linecap="round" stroke-linejoin="round"/>
<path d="M8.00057 11.3682H8.00656" stroke="#919191" stroke-width="1.5" stroke-linecap="round" stroke-linejoin="round"/>
<path d="M5.53377 9.36825H5.53976" stroke="#919191" stroke-width="1.5" stroke-linecap="round" stroke-linejoin="round"/>
<path d="M5.53377 11.3682H5.53976" stroke="#919191" stroke-width="1.5" stroke-linecap="round" stroke-linejoin="round"/>
</svg>
