<svg width="16" height="17" viewBox="0 0 16 17" fill="none" xmlns="http://www.w3.org/2000/svg">
<path d="M8.00366 10.2578C9.10823 10.2578 10.0037 9.36238 10.0037 8.25781C10.0037 7.15324 9.10823 6.25781 8.00366 6.25781C6.89909 6.25781 6.00366 7.15324 6.00366 8.25781C6.00366 9.36238 6.89909 10.2578 8.00366 10.2578Z" stroke="#193547" stroke-width="1.5" stroke-miterlimit="10" stroke-linecap="round" stroke-linejoin="round"/>
<path d="M1.33704 8.84411V7.67078C1.33704 6.97744 1.9037 6.40411 2.6037 6.40411C3.81037 6.40411 4.3037 5.55078 3.69704 4.50411C3.35037 3.90411 3.55704 3.12411 4.1637 2.77744L5.31704 2.11744C5.8437 1.80411 6.5237 1.99078 6.83704 2.51744L6.91037 2.64411C7.51037 3.69078 8.49704 3.69078 9.1037 2.64411L9.17704 2.51744C9.49037 1.99078 10.1704 1.80411 10.697 2.11744L11.8504 2.77744C12.457 3.12411 12.6637 3.90411 12.317 4.50411C11.7104 5.55078 12.2037 6.40411 13.4104 6.40411C14.1037 6.40411 14.677 6.97078 14.677 7.67078V8.84411C14.677 9.53744 14.1104 10.1108 13.4104 10.1108C12.2037 10.1108 11.7104 10.9641 12.317 12.0108C12.6637 12.6174 12.457 13.3908 11.8504 13.7374L10.697 14.3974C10.1704 14.7108 9.49037 14.5241 9.17704 13.9974L9.1037 13.8708C8.5037 12.8241 7.51704 12.8241 6.91037 13.8708L6.83704 13.9974C6.5237 14.5241 5.8437 14.7108 5.31704 14.3974L4.1637 13.7374C3.55704 13.3908 3.35037 12.6108 3.69704 12.0108C4.3037 10.9641 3.81037 10.1108 2.6037 10.1108C1.9037 10.1108 1.33704 9.53744 1.33704 8.84411Z" stroke="#193547" stroke-width="1.5" stroke-miterlimit="10" stroke-linecap="round" stroke-linejoin="round"/>
</svg>
