<svg width="60" height="60" viewBox="0 0 60 60" fill="none" xmlns="http://www.w3.org/2000/svg">
<g clip-path="url(#clip0_60_209)">
<path d="M30 0.00134277C13.4332 0.00134277 0 13.4319 0 30C0 46.5682 13.4319 59.9987 30 59.9987C46.5694 59.9987 60 46.5682 60 30C60 13.4319 46.5694 0.00134277 30 0.00134277ZM30 8.9713C35.4819 8.9713 39.924 13.4148 39.924 18.894C39.924 24.3745 35.4819 28.8167 30 28.8167C24.5208 28.8167 20.0786 24.3745 20.0786 18.894C20.0786 13.4148 24.5208 8.9713 30 8.9713ZM29.9934 52.1554C24.526 52.1554 19.5186 50.1643 15.6562 46.8686C14.7154 46.0661 14.1724 44.8893 14.1724 43.6546C14.1724 38.0976 18.6699 33.6502 24.2282 33.6502H35.7744C41.334 33.6502 45.8144 38.0976 45.8144 43.6546C45.8144 44.8906 45.2741 46.0648 44.3319 46.8673C40.4709 50.1643 35.4621 52.1554 29.9934 52.1554Z" fill="#7A7A7A"/>
</g>
<defs>
<clipPath id="clip0_60_209">
<rect width="60" height="60" fill="white"/>
</clipPath>
</defs>
</svg>
